# MagicaVoxel @ Ephtracy

# group
o 

# material
mtllib Lake.mtl
usemtl palette

# normals
vn -1 0 0
vn 1 0 0
vn 0 0 1
vn 0 0 -1
vn 0 -1 0
vn 0 1 0

# texcoords
vt 0.00976563 0.5
vt 0.537109 0.5
vt 0.892578 0.5
vt 0.900391 0.5

# verts
v -2 0 2
v -2 0 -2
v -2 0.4 2
v -2 0.4 -2
v -2 0.5 2
v -2 0.5 -2
v 0.1 0.1 0.9
v 0.1 0.1 0.8
v 0.1 0.2 0.9
v 0.1 0.2 0.8
v 0.1 0.4 1.7
v 0.1 0.4 1.6
v 0.1 0.5 1.7
v 0.1 0.5 1.6
v 0.3 0.1 -0.4
v 0.3 0.1 -0.6
v 0.3 0.2 -0.4
v 0.3 0.2 -0.6
v 0.3 0.3 1.4
v 0.3 0.3 1.3
v 0.3 0.4 1.4
v 0.3 0.4 1.3
v 0.5 0.1 0.8
v 0.5 0.1 0.6
v 0.5 0.1 -0.3
v 0.5 0.1 -0.4
v 0.5 0.2 0.8
v 0.5 0.2 0.6
v 0.5 0.2 -0.3
v 0.5 0.2 -0.4
v 0.7 0.1 0.6
v 0.7 0.1 -0.3
v 0.7 0.2 0.6
v 0.7 0.2 -0.3
v 0.8 0.2 1.1
v 0.8 0.2 0.9
v 0.8 0.2 -0.5
v 0.8 0.2 -0.9
v 0.8 0.3 1.1
v 0.8 0.3 0.9
v 0.8 0.3 -0.5
v 0.8 0.3 -0.9
v 0.9 0.3 -0.9
v 0.9 0.3 -1.2
v 0.9 0.4 1.6
v 0.9 0.4 1.4
v 0.9 0.4 -0.9
v 0.9 0.4 -1.2
v 0.9 0.4 -1.5
v 0.9 0.4 -1.7
v 0.9 0.5 1.6
v 0.9 0.5 1.4
v 0.9 0.5 -1.5
v 0.9 0.5 -1.7
v 1 0.2 0.9
v 1 0.2 -0.5
v 1 0.3 0.9
v 1 0.3 -0.5
v 1.1 0.3 1.3
v 1.1 0.3 1
v 1.1 0.3 -0.3
v 1.1 0.3 -0.9
v 1.1 0.4 1.3
v 1.1 0.4 1
v 1.1 0.4 -0.3
v 1.1 0.4 -0.9
v 1.1 0.4 -1.3
v 1.1 0.4 -1.5
v 1.1 0.5 -1.3
v 1.1 0.5 -1.5
v 1.2 0.4 1.4
v 1.2 0.4 1.2
v 1.2 0.4 -0.8
v 1.2 0.4 -1.3
v 1.2 0.5 1.4
v 1.2 0.5 1.2
v 1.2 0.5 -0.8
v 1.2 0.5 -1.3
v 1.3 0.3 0.6
v 1.3 0.3 -0.3
v 1.3 0.4 0.6
v 1.3 0.4 -0.3
v 1.4 0.3 0.8
v 1.4 0.3 0.6
v 1.4 0.4 0.8
v 1.4 0.4 0.6
v 1.4 0.4 -0.3
v 1.4 0.4 -0.8
v 1.4 0.5 -0.3
v 1.4 0.5 -0.8
v 1.6 0.3 1
v 1.6 0.3 0.8
v 1.6 0.4 1
v 1.6 0.4 0.8
v 1.6 0.4 0.7
v 1.6 0.4 -0.3
v 1.6 0.5 0.7
v 1.6 0.5 -0.3
v 1.8 0.4 1.2
v 1.8 0.4 0.7
v 1.8 0.5 1.2
v 1.8 0.5 0.7
v -1.7 0.4 0.4
v -1.7 0.4 -1.1
v -1.7 0.5 0.4
v -1.7 0.5 -1.1
v -1.6 0.4 1.2
v -1.6 0.4 0.4
v -1.6 0.5 1.2
v -1.6 0.5 0.4
v -1.3 0.4 1.4
v -1.3 0.4 1.2
v -1.3 0.4 -1.1
v -1.3 0.4 -1.3
v -1.3 0.5 1.4
v -1.3 0.5 1.2
v -1.3 0.5 -1.1
v -1.3 0.5 -1.3
v -1.2 0.3 1.3
v -1.2 0.3 -0.9
v -1.2 0.4 1.3
v -1.2 0.4 -0.9
v -1.1 0.2 1
v -1.1 0.2 -0.7
v -1.1 0.3 1
v -1.1 0.3 -0.7
v -1 0.4 1.6
v -1 0.4 1.4
v -1 0.5 1.6
v -1 0.5 1.4
v -0.9 0.1 0.6
v -0.9 0.1 -0.1
v -0.9 0.2 0.6
v -0.9 0.2 -0.1
v -0.9 0.4 -1.3
v -0.9 0.4 -1.5
v -0.9 0.5 -1.3
v -0.9 0.5 -1.5
v -0.8 0.1 0.8
v -0.8 0.1 0.6
v -0.8 0.1 -0.1
v -0.8 0.1 -0.4
v -0.8 0.2 0.8
v -0.8 0.2 0.6
v -0.8 0.2 -0.1
v -0.8 0.2 -0.4
v -0.8 0.3 -0.9
v -0.8 0.3 -1.2
v -0.8 0.4 -0.9
v -0.8 0.4 -1.2
v -0.7 0.1 -0.4
v -0.7 0.1 -0.6
v -0.7 0.2 1.1
v -0.7 0.2 1
v -0.7 0.2 -0.4
v -0.7 0.2 -0.6
v -0.7 0.2 -0.7
v -0.7 0.2 -0.9
v -0.7 0.3 1.1
v -0.7 0.3 1
v -0.7 0.3 -0.7
v -0.7 0.3 -0.9
v -0.6 0.4 1.7
v -0.6 0.4 1.6
v -0.6 0.4 -1.5
v -0.6 0.4 -1.7
v -0.6 0.5 1.7
v -0.6 0.5 1.6
v -0.6 0.5 -1.5
v -0.6 0.5 -1.7
v -0.5 0.3 1.4
v -0.5 0.3 1.3
v -0.5 0.4 1.4
v -0.5 0.4 1.3
v -0.4 0.1 0.9
v -0.4 0.1 0.8
v -0.4 0.2 0.9
v -0.4 0.2 0.8
v 2 0 2
v 2 0 -2
v 2 0.4 2
v 2 0.4 -2
v 2 0.5 2
v 2 0.5 -2
v -2 0 2
v -2 0.4 2
v -2 0.5 2
v 2 0 2
v 2 0.4 2
v 2 0.5 2
v 1.4 0.3 0.8
v 1.4 0.4 0.8
v 1.6 0.3 0.8
v 1.6 0.4 0.8
v 1.6 0.4 0.7
v 1.6 0.5 0.7
v 1.8 0.4 0.7
v 1.8 0.5 0.7
v 1.3 0.3 0.6
v 1.3 0.4 0.6
v 1.4 0.3 0.6
v 1.4 0.4 0.6
v -0.9 0.1 -0.1
v -0.9 0.2 -0.1
v -0.8 0.1 -0.1
v -0.8 0.2 -0.1
v 0.5 0.1 -0.3
v 0.5 0.2 -0.3
v 0.7 0.1 -0.3
v 0.7 0.2 -0.3
v 1.1 0.3 -0.3
v 1.1 0.4 -0.3
v 1.3 0.3 -0.3
v 1.3 0.4 -0.3
v 1.4 0.4 -0.3
v 1.4 0.5 -0.3
v 1.6 0.4 -0.3
v 1.6 0.5 -0.3
v -0.8 0.1 -0.4
v -0.8 0.2 -0.4
v -0.7 0.1 -0.4
v -0.7 0.2 -0.4
v 0.3 0.1 -0.4
v 0.3 0.2 -0.4
v 0.5 0.1 -0.4
v 0.5 0.2 -0.4
v 0.8 0.2 -0.5
v 0.8 0.3 -0.5
v 1 0.2 -0.5
v 1 0.3 -0.5
v -0.7 0.1 -0.6
v -0.7 0.2 -0.6
v 0.3 0.1 -0.6
v 0.3 0.2 -0.6
v -1.1 0.2 -0.7
v -1.1 0.3 -0.7
v -0.7 0.2 -0.7
v -0.7 0.3 -0.7
v 1.2 0.4 -0.8
v 1.2 0.5 -0.8
v 1.4 0.4 -0.8
v 1.4 0.5 -0.8
v -1.2 0.3 -0.9
v -1.2 0.4 -0.9
v -0.8 0.3 -0.9
v -0.8 0.4 -0.9
v -0.7 0.2 -0.9
v -0.7 0.3 -0.9
v 0.8 0.2 -0.9
v 0.8 0.3 -0.9
v 0.9 0.3 -0.9
v 0.9 0.4 -0.9
v 1.1 0.3 -0.9
v 1.1 0.4 -0.9
v -1.7 0.4 -1.1
v -1.7 0.5 -1.1
v -1.3 0.4 -1.1
v -1.3 0.5 -1.1
v -0.8 0.3 -1.2
v -0.8 0.4 -1.2
v 0.9 0.3 -1.2
v 0.9 0.4 -1.2
v -1.3 0.4 -1.3
v -1.3 0.5 -1.3
v -0.9 0.4 -1.3
v -0.9 0.5 -1.3
v 1.1 0.4 -1.3
v 1.1 0.5 -1.3
v 1.2 0.4 -1.3
v 1.2 0.5 -1.3
v -0.9 0.4 -1.5
v -0.9 0.5 -1.5
v -0.6 0.4 -1.5
v -0.6 0.5 -1.5
v 0.9 0.4 -1.5
v 0.9 0.5 -1.5
v 1.1 0.4 -1.5
v 1.1 0.5 -1.5
v -0.6 0.4 -1.7
v -0.6 0.5 -1.7
v 0.9 0.4 -1.7
v 0.9 0.5 -1.7
v -0.6 0.4 1.7
v -0.6 0.5 1.7
v 0.1 0.4 1.7
v 0.1 0.5 1.7
v -1 0.4 1.6
v -1 0.5 1.6
v -0.6 0.4 1.6
v -0.6 0.5 1.6
v 0.1 0.4 1.6
v 0.1 0.5 1.6
v 0.9 0.4 1.6
v 0.9 0.5 1.6
v -1.3 0.4 1.4
v -1.3 0.5 1.4
v -1 0.4 1.4
v -1 0.5 1.4
v -0.5 0.3 1.4
v -0.5 0.4 1.4
v 0.3 0.3 1.4
v 0.3 0.4 1.4
v 0.9 0.4 1.4
v 0.9 0.5 1.4
v 1.2 0.4 1.4
v 1.2 0.5 1.4
v -1.2 0.3 1.3
v -1.2 0.4 1.3
v -0.5 0.3 1.3
v -0.5 0.4 1.3
v 0.3 0.3 1.3
v 0.3 0.4 1.3
v 1.1 0.3 1.3
v 1.1 0.4 1.3
v -1.6 0.4 1.2
v -1.6 0.5 1.2
v -1.3 0.4 1.2
v -1.3 0.5 1.2
v 1.2 0.4 1.2
v 1.2 0.5 1.2
v 1.8 0.4 1.2
v 1.8 0.5 1.2
v -0.7 0.2 1.1
v -0.7 0.3 1.1
v 0.8 0.2 1.1
v 0.8 0.3 1.1
v -1.1 0.2 1
v -1.1 0.3 1
v -0.7 0.2 1
v -0.7 0.3 1
v 1.1 0.3 1
v 1.1 0.4 1
v 1.6 0.3 1
v 1.6 0.4 1
v -0.4 0.1 0.9
v -0.4 0.2 0.9
v 0.1 0.1 0.9
v 0.1 0.2 0.9
v 0.8 0.2 0.9
v 0.8 0.3 0.9
v 1 0.2 0.9
v 1 0.3 0.9
v -0.8 0.1 0.8
v -0.8 0.2 0.8
v -0.4 0.1 0.8
v -0.4 0.2 0.8
v 0.1 0.1 0.8
v 0.1 0.2 0.8
v 0.5 0.1 0.8
v 0.5 0.2 0.8
v -0.9 0.1 0.6
v -0.9 0.2 0.6
v -0.8 0.1 0.6
v -0.8 0.2 0.6
v 0.5 0.1 0.6
v 0.5 0.2 0.6
v 0.7 0.1 0.6
v 0.7 0.2 0.6
v -1.7 0.4 0.4
v -1.7 0.5 0.4
v -1.6 0.4 0.4
v -1.6 0.5 0.4
v -2 0 -2
v -2 0.4 -2
v -2 0.5 -2
v 2 0 -2
v 2 0.4 -2
v 2 0.5 -2
v -2 0 2
v 2 0 2
v -1.9 0 1.9
v 1.9 0 1.9
v -1.9 0 -1.9
v 1.9 0 -1.9
v -2 0 -2
v 2 0 -2
v -0.4 0.1 0.9
v 0.1 0.1 0.9
v -0.8 0.1 0.8
v -0.4 0.1 0.8
v 0.1 0.1 0.8
v 0.5 0.1 0.8
v -0.9 0.1 0.6
v -0.8 0.1 0.6
v 0.5 0.1 0.6
v 0.7 0.1 0.6
v -0.9 0.1 -0.1
v -0.8 0.1 -0.1
v 0.5 0.1 -0.3
v 0.7 0.1 -0.3
v -0.8 0.1 -0.4
v -0.7 0.1 -0.4
v 0.3 0.1 -0.4
v 0.5 0.1 -0.4
v -0.7 0.1 -0.6
v 0.3 0.1 -0.6
v -0.7 0.2 1.1
v 0.8 0.2 1.1
v -1.1 0.2 1
v -0.7 0.2 1
v -0.4 0.2 0.9
v 0.1 0.2 0.9
v 0.8 0.2 0.9
v 1 0.2 0.9
v -0.8 0.2 0.8
v -0.4 0.2 0.8
v 0.1 0.2 0.8
v 0.5 0.2 0.8
v -0.9 0.2 0.6
v -0.8 0.2 0.6
v 0.5 0.2 0.6
v 0.7 0.2 0.6
v -0.9 0.2 -0.1
v -0.8 0.2 -0.1
v 0.5 0.2 -0.3
v 0.7 0.2 -0.3
v -0.8 0.2 -0.4
v -0.7 0.2 -0.4
v 0.3 0.2 -0.4
v 0.5 0.2 -0.4
v 0.8 0.2 -0.5
v 1 0.2 -0.5
v -0.7 0.2 -0.6
v 0.3 0.2 -0.6
v -1.1 0.2 -0.7
v -0.7 0.2 -0.7
v -0.7 0.2 -0.9
v 0.8 0.2 -0.9
v -0.5 0.3 1.4
v 0.3 0.3 1.4
v -1.2 0.3 1.3
v -0.5 0.3 1.3
v 0.3 0.3 1.3
v 1.1 0.3 1.3
v -0.7 0.3 1.1
v 0.8 0.3 1.1
v -1.1 0.3 1
v -0.7 0.3 1
v 1.1 0.3 1
v 1.6 0.3 1
v 0.8 0.3 0.9
v 1 0.3 0.9
v 1.4 0.3 0.8
v 1.6 0.3 0.8
v 1.3 0.3 0.6
v 1.4 0.3 0.6
v 1.1 0.3 -0.3
v 1.3 0.3 -0.3
v 0.8 0.3 -0.5
v 1 0.3 -0.5
v -1.1 0.3 -0.7
v -0.7 0.3 -0.7
v -1.2 0.3 -0.9
v -0.8 0.3 -0.9
v -0.7 0.3 -0.9
v 0.8 0.3 -0.9
v 0.9 0.3 -0.9
v 1.1 0.3 -0.9
v -0.8 0.3 -1.2
v 0.9 0.3 -1.2
v -0.6 0.4 1.7
v 0.1 0.4 1.7
v -1 0.4 1.6
v -0.6 0.4 1.6
v 0.1 0.4 1.6
v 0.9 0.4 1.6
v -1.3 0.4 1.4
v -1 0.4 1.4
v -0.5 0.4 1.4
v 0.3 0.4 1.4
v 0.9 0.4 1.4
v 1.2 0.4 1.4
v -1.2 0.4 1.3
v -0.5 0.4 1.3
v 0.3 0.4 1.3
v 1.1 0.4 1.3
v -1.6 0.4 1.2
v -1.3 0.4 1.2
v 1.2 0.4 1.2
v 1.8 0.4 1.2
v 1.1 0.4 1
v 1.6 0.4 1
v 1.4 0.4 0.8
v 1.6 0.4 0.8
v 1.6 0.4 0.7
v 1.8 0.4 0.7
v 1.3 0.4 0.6
v 1.4 0.4 0.6
v -1.7 0.4 0.4
v -1.6 0.4 0.4
v 1.1 0.4 -0.3
v 1.3 0.4 -0.3
v 1.4 0.4 -0.3
v 1.6 0.4 -0.3
v 1.2 0.4 -0.8
v 1.4 0.4 -0.8
v -1.2 0.4 -0.9
v -0.8 0.4 -0.9
v 0.9 0.4 -0.9
v 1.1 0.4 -0.9
v -1.7 0.4 -1.1
v -1.3 0.4 -1.1
v -0.8 0.4 -1.2
v 0.9 0.4 -1.2
v -1.3 0.4 -1.3
v -0.9 0.4 -1.3
v 1.1 0.4 -1.3
v 1.2 0.4 -1.3
v -0.9 0.4 -1.5
v -0.6 0.4 -1.5
v 0.9 0.4 -1.5
v 1.1 0.4 -1.5
v -0.6 0.4 -1.7
v 0.9 0.4 -1.7
v -2 0.5 2
v 2 0.5 2
v -0.9 0.5 1.9
v 0.4 0.5 1.9
v 0.4 0.5 1.8
v 1.1 0.5 1.8
v -1.2 0.5 1.7
v -0.9 0.5 1.7
v -0.6 0.5 1.7
v 0.1 0.5 1.7
v 1.1 0.5 1.7
v 1.3 0.5 1.7
v -1.3 0.5 1.6
v -1.2 0.5 1.6
v -1 0.5 1.6
v -0.6 0.5 1.6
v 0.1 0.5 1.6
v 0.9 0.5 1.6
v 1.3 0.5 1.6
v 1.5 0.5 1.6
v -1.6 0.5 1.5
v -1.3 0.5 1.5
v 1.5 0.5 1.5
v 1.8 0.5 1.5
v -1.7 0.5 1.4
v -1.6 0.5 1.4
v -1.3 0.5 1.4
v -1 0.5 1.4
v 0.9 0.5 1.4
v 1.2 0.5 1.4
v 1.8 0.5 1.3
v 1.9 0.5 1.3
v -1.6 0.5 1.2
v -1.3 0.5 1.2
v 1.2 0.5 1.2
v 1.8 0.5 1.2
v -1.8 0.5 0.9
v -1.7 0.5 0.9
v 1.6 0.5 0.7
v 1.8 0.5 0.7
v -1.7 0.5 0.4
v -1.6 0.5 0.4
v 1.8 0.5 -0.2
v 1.9 0.5 -0.2
v 1.4 0.5 -0.3
v 1.6 0.5 -0.3
v 1.2 0.5 -0.8
v 1.4 0.5 -0.8
v -1.7 0.5 -1.1
v -1.3 0.5 -1.1
v 1.6 0.5 -1.2
v 1.8 0.5 -1.2
v -1.3 0.5 -1.3
v -0.9 0.5 -1.3
v 1.1 0.5 -1.3
v 1.2 0.5 -1.3
v -1.8 0.5 -1.5
v -1.7 0.5 -1.5
v -0.9 0.5 -1.5
v -0.6 0.5 -1.5
v 0.9 0.5 -1.5
v 1.1 0.5 -1.5
v -1.7 0.5 -1.6
v -1.5 0.5 -1.6
v 1.3 0.5 -1.6
v 1.6 0.5 -1.6
v -1.5 0.5 -1.7
v -1.1 0.5 -1.7
v -0.6 0.5 -1.7
v 0.9 0.5 -1.7
v 1 0.5 -1.7
v 1.3 0.5 -1.7
v -1.1 0.5 -1.8
v 1 0.5 -1.8
v -2 0.5 -2
v 2 0.5 -2

# faces
f 3/2/1 2/2/1 1/2/1
f 4/2/1 2/2/1 3/2/1
f 5/4/1 4/4/1 3/4/1
f 6/4/1 4/4/1 5/4/1
f 9/1/1 8/1/1 7/1/1
f 10/1/1 8/1/1 9/1/1
f 13/3/1 12/3/1 11/3/1
f 14/3/1 12/3/1 13/3/1
f 17/1/1 16/1/1 15/1/1
f 18/1/1 16/1/1 17/1/1
f 21/1/1 20/1/1 19/1/1
f 22/1/1 20/1/1 21/1/1
f 27/1/1 24/1/1 23/1/1
f 28/1/1 24/1/1 27/1/1
f 29/1/1 26/1/1 25/1/1
f 30/1/1 26/1/1 29/1/1
f 33/1/1 32/1/1 31/1/1
f 34/1/1 32/1/1 33/1/1
f 39/1/1 36/1/1 35/1/1
f 40/1/1 36/1/1 39/1/1
f 41/1/1 38/1/1 37/1/1
f 42/1/1 38/1/1 41/1/1
f 47/1/1 44/1/1 43/1/1
f 48/1/1 44/1/1 47/1/1
f 51/3/1 46/3/1 45/3/1
f 52/3/1 46/3/1 51/3/1
f 53/3/1 50/3/1 49/3/1
f 54/3/1 50/3/1 53/3/1
f 57/1/1 56/1/1 55/1/1
f 58/1/1 56/1/1 57/1/1
f 63/1/1 60/1/1 59/1/1
f 64/1/1 60/1/1 63/1/1
f 65/1/1 62/1/1 61/1/1
f 66/1/1 62/1/1 65/1/1
f 69/3/1 68/3/1 67/3/1
f 70/3/1 68/3/1 69/3/1
f 75/3/1 72/3/1 71/3/1
f 76/3/1 72/3/1 75/3/1
f 77/3/1 74/3/1 73/3/1
f 78/3/1 74/3/1 77/3/1
f 81/1/1 80/1/1 79/1/1
f 82/1/1 80/1/1 81/1/1
f 85/1/1 84/1/1 83/1/1
f 86/1/1 84/1/1 85/1/1
f 89/3/1 88/3/1 87/3/1
f 90/3/1 88/3/1 89/3/1
f 93/1/1 92/1/1 91/1/1
f 94/1/1 92/1/1 93/1/1
f 97/3/1 96/3/1 95/3/1
f 98/3/1 96/3/1 97/3/1
f 101/3/1 100/3/1 99/3/1
f 102/3/1 100/3/1 101/3/1
f 103/3/2 104/3/2 105/3/2
f 105/3/2 104/3/2 106/3/2
f 107/3/2 108/3/2 109/3/2
f 109/3/2 108/3/2 110/3/2
f 111/3/2 112/3/2 115/3/2
f 115/3/2 112/3/2 116/3/2
f 113/3/2 114/3/2 117/3/2
f 117/3/2 114/3/2 118/3/2
f 119/1/2 120/1/2 121/1/2
f 121/1/2 120/1/2 122/1/2
f 123/1/2 124/1/2 125/1/2
f 125/1/2 124/1/2 126/1/2
f 127/3/2 128/3/2 129/3/2
f 129/3/2 128/3/2 130/3/2
f 131/1/2 132/1/2 133/1/2
f 133/1/2 132/1/2 134/1/2
f 135/3/2 136/3/2 137/3/2
f 137/3/2 136/3/2 138/3/2
f 139/1/2 140/1/2 143/1/2
f 143/1/2 140/1/2 144/1/2
f 141/1/2 142/1/2 145/1/2
f 145/1/2 142/1/2 146/1/2
f 147/1/2 148/1/2 149/1/2
f 149/1/2 148/1/2 150/1/2
f 151/1/2 152/1/2 155/1/2
f 155/1/2 152/1/2 156/1/2
f 153/1/2 154/1/2 159/1/2
f 159/1/2 154/1/2 160/1/2
f 157/1/2 158/1/2 161/1/2
f 161/1/2 158/1/2 162/1/2
f 163/3/2 164/3/2 167/3/2
f 167/3/2 164/3/2 168/3/2
f 165/3/2 166/3/2 169/3/2
f 169/3/2 166/3/2 170/3/2
f 171/1/2 172/1/2 173/1/2
f 173/1/2 172/1/2 174/1/2
f 175/1/2 176/1/2 177/1/2
f 177/1/2 176/1/2 178/1/2
f 179/2/2 180/2/2 181/2/2
f 181/2/2 180/2/2 182/2/2
f 181/4/2 182/4/2 183/4/2
f 183/4/2 182/4/2 184/4/2
f 188/2/3 186/2/3 185/2/3
f 189/4/3 187/4/3 186/4/3
f 189/2/3 186/2/3 188/2/3
f 190/4/3 187/4/3 189/4/3
f 193/1/3 192/1/3 191/1/3
f 194/1/3 192/1/3 193/1/3
f 197/3/3 196/3/3 195/3/3
f 198/3/3 196/3/3 197/3/3
f 201/1/3 200/1/3 199/1/3
f 202/1/3 200/1/3 201/1/3
f 205/1/3 204/1/3 203/1/3
f 206/1/3 204/1/3 205/1/3
f 209/1/3 208/1/3 207/1/3
f 210/1/3 208/1/3 209/1/3
f 213/1/3 212/1/3 211/1/3
f 214/1/3 212/1/3 213/1/3
f 217/3/3 216/3/3 215/3/3
f 218/3/3 216/3/3 217/3/3
f 221/1/3 220/1/3 219/1/3
f 222/1/3 220/1/3 221/1/3
f 225/1/3 224/1/3 223/1/3
f 226/1/3 224/1/3 225/1/3
f 229/1/3 228/1/3 227/1/3
f 230/1/3 228/1/3 229/1/3
f 233/1/3 232/1/3 231/1/3
f 234/1/3 232/1/3 233/1/3
f 237/1/3 236/1/3 235/1/3
f 238/1/3 236/1/3 237/1/3
f 241/3/3 240/3/3 239/3/3
f 242/3/3 240/3/3 241/3/3
f 245/1/3 244/1/3 243/1/3
f 246/1/3 244/1/3 245/1/3
f 249/1/3 248/1/3 247/1/3
f 250/1/3 248/1/3 249/1/3
f 253/1/3 252/1/3 251/1/3
f 254/1/3 252/1/3 253/1/3
f 257/3/3 256/3/3 255/3/3
f 258/3/3 256/3/3 257/3/3
f 261/1/3 260/1/3 259/1/3
f 262/1/3 260/1/3 261/1/3
f 265/3/3 264/3/3 263/3/3
f 266/3/3 264/3/3 265/3/3
f 269/3/3 268/3/3 267/3/3
f 270/3/3 268/3/3 269/3/3
f 273/3/3 272/3/3 271/3/3
f 274/3/3 272/3/3 273/3/3
f 277/3/3 276/3/3 275/3/3
f 278/3/3 276/3/3 277/3/3
f 281/3/3 280/3/3 279/3/3
f 282/3/3 280/3/3 281/3/3
f 283/3/4 284/3/4 285/3/4
f 285/3/4 284/3/4 286/3/4
f 287/3/4 288/3/4 289/3/4
f 289/3/4 288/3/4 290/3/4
f 291/3/4 292/3/4 293/3/4
f 293/3/4 292/3/4 294/3/4
f 295/3/4 296/3/4 297/3/4
f 297/3/4 296/3/4 298/3/4
f 299/1/4 300/1/4 301/1/4
f 301/1/4 300/1/4 302/1/4
f 303/3/4 304/3/4 305/3/4
f 305/3/4 304/3/4 306/3/4
f 307/1/4 308/1/4 309/1/4
f 309/1/4 308/1/4 310/1/4
f 311/1/4 312/1/4 313/1/4
f 313/1/4 312/1/4 314/1/4
f 315/3/4 316/3/4 317/3/4
f 317/3/4 316/3/4 318/3/4
f 319/3/4 320/3/4 321/3/4
f 321/3/4 320/3/4 322/3/4
f 323/1/4 324/1/4 325/1/4
f 325/1/4 324/1/4 326/1/4
f 327/1/4 328/1/4 329/1/4
f 329/1/4 328/1/4 330/1/4
f 331/1/4 332/1/4 333/1/4
f 333/1/4 332/1/4 334/1/4
f 335/1/4 336/1/4 337/1/4
f 337/1/4 336/1/4 338/1/4
f 339/1/4 340/1/4 341/1/4
f 341/1/4 340/1/4 342/1/4
f 343/1/4 344/1/4 345/1/4
f 345/1/4 344/1/4 346/1/4
f 347/1/4 348/1/4 349/1/4
f 349/1/4 348/1/4 350/1/4
f 351/1/4 352/1/4 353/1/4
f 353/1/4 352/1/4 354/1/4
f 355/1/4 356/1/4 357/1/4
f 357/1/4 356/1/4 358/1/4
f 359/3/4 360/3/4 361/3/4
f 361/3/4 360/3/4 362/3/4
f 363/2/4 364/2/4 366/2/4
f 364/4/4 365/4/4 367/4/4
f 366/2/4 364/2/4 367/2/4
f 367/4/4 365/4/4 368/4/4
f 371/2/5 370/2/5 369/2/5
f 372/2/5 370/2/5 371/2/5
f 373/2/5 371/2/5 369/2/5
f 373/1/5 372/1/5 371/1/5
f 374/2/5 370/2/5 372/2/5
f 374/1/5 372/1/5 373/1/5
f 375/2/5 373/2/5 369/2/5
f 375/2/5 374/2/5 373/2/5
f 376/2/5 370/2/5 374/2/5
f 376/2/5 374/2/5 375/2/5
f 377/1/6 378/1/6 380/1/6
f 380/1/6 378/1/6 381/1/6
f 379/1/6 380/1/6 384/1/6
f 381/1/6 382/1/6 384/1/6
f 380/1/6 381/1/6 384/1/6
f 384/1/6 382/1/6 385/1/6
f 383/1/6 384/1/6 387/1/6
f 385/1/6 386/1/6 387/1/6
f 384/1/6 385/1/6 387/1/6
f 387/1/6 386/1/6 388/1/6
f 388/1/6 386/1/6 389/1/6
f 389/1/6 386/1/6 390/1/6
f 388/1/6 389/1/6 391/1/6
f 391/1/6 389/1/6 392/1/6
f 392/1/6 389/1/6 393/1/6
f 393/1/6 389/1/6 394/1/6
f 392/1/6 393/1/6 395/1/6
f 395/1/6 393/1/6 396/1/6
f 397/1/6 398/1/6 400/1/6
f 400/1/6 398/1/6 401/1/6
f 399/1/6 400/1/6 401/1/6
f 401/1/6 398/1/6 402/1/6
f 402/1/6 398/1/6 403/1/6
f 399/1/6 401/1/6 405/1/6
f 405/1/6 401/1/6 406/1/6
f 403/1/6 404/1/6 407/1/6
f 402/1/6 403/1/6 407/1/6
f 407/1/6 404/1/6 408/1/6
f 399/1/6 405/1/6 409/1/6
f 409/1/6 405/1/6 410/1/6
f 408/1/6 404/1/6 411/1/6
f 411/1/6 404/1/6 412/1/6
f 399/1/6 409/1/6 413/1/6
f 412/1/6 404/1/6 416/1/6
f 413/1/6 414/1/6 417/1/6
f 415/1/6 416/1/6 420/1/6
f 416/1/6 404/1/6 421/1/6
f 419/1/6 420/1/6 421/1/6
f 420/1/6 416/1/6 421/1/6
f 421/1/6 404/1/6 422/1/6
f 417/1/6 418/1/6 423/1/6
f 419/1/6 421/1/6 424/1/6
f 399/1/6 413/1/6 425/1/6
f 423/1/6 424/1/6 425/1/6
f 413/1/6 417/1/6 425/1/6
f 417/1/6 423/1/6 425/1/6
f 425/1/6 424/1/6 426/1/6
f 426/1/6 424/1/6 427/1/6
f 424/1/6 421/1/6 428/1/6
f 427/1/6 424/1/6 428/1/6
f 429/1/6 430/1/6 432/1/6
f 432/1/6 430/1/6 433/1/6
f 431/1/6 432/1/6 435/1/6
f 433/1/6 434/1/6 435/1/6
f 432/1/6 433/1/6 435/1/6
f 435/1/6 434/1/6 436/1/6
f 431/1/6 435/1/6 437/1/6
f 437/1/6 435/1/6 438/1/6
f 436/1/6 434/1/6 439/1/6
f 439/1/6 440/1/6 441/1/6
f 436/1/6 439/1/6 441/1/6
f 441/1/6 440/1/6 442/1/6
f 442/1/6 440/1/6 443/1/6
f 443/1/6 440/1/6 444/1/6
f 442/1/6 443/1/6 445/1/6
f 445/1/6 443/1/6 446/1/6
f 442/1/6 445/1/6 447/1/6
f 447/1/6 445/1/6 448/1/6
f 442/1/6 447/1/6 450/1/6
f 431/1/6 437/1/6 451/1/6
f 431/1/6 451/1/6 453/1/6
f 451/1/6 452/1/6 453/1/6
f 453/1/6 452/1/6 454/1/6
f 454/1/6 452/1/6 455/1/6
f 449/1/6 450/1/6 456/1/6
f 456/1/6 450/1/6 457/1/6
f 450/1/6 447/1/6 458/1/6
f 457/1/6 450/1/6 458/1/6
f 454/1/6 455/1/6 459/1/6
f 456/1/6 457/1/6 459/1/6
f 455/1/6 456/1/6 459/1/6
f 459/1/6 457/1/6 460/1/6
f 461/1/6 462/1/6 464/1/6
f 464/1/6 462/1/6 465/1/6
f 463/1/6 464/1/6 468/1/6
f 465/1/6 466/1/6 468/1/6
f 464/1/6 465/1/6 468/1/6
f 468/1/6 466/1/6 469/1/6
f 469/1/6 466/1/6 470/1/6
f 470/1/6 466/1/6 471/1/6
f 467/1/6 468/1/6 473/1/6
f 468/1/6 469/1/6 473/1/6
f 473/1/6 469/1/6 474/1/6
f 471/1/6 472/1/6 475/1/6
f 470/1/6 471/1/6 475/1/6
f 475/1/6 472/1/6 476/1/6
f 467/1/6 473/1/6 478/1/6
f 476/1/6 472/1/6 479/1/6
f 476/1/6 479/1/6 481/1/6
f 479/1/6 480/1/6 481/1/6
f 481/1/6 480/1/6 482/1/6
f 482/1/6 480/1/6 484/1/6
f 484/1/6 480/1/6 485/1/6
f 483/1/6 484/1/6 485/1/6
f 485/1/6 480/1/6 486/1/6
f 483/1/6 485/1/6 488/1/6
f 477/1/6 478/1/6 490/1/6
f 487/1/6 488/1/6 492/1/6
f 488/1/6 485/1/6 493/1/6
f 492/1/6 488/1/6 493/1/6
f 493/1/6 485/1/6 494/1/6
f 491/1/6 492/1/6 495/1/6
f 492/1/6 493/1/6 495/1/6
f 495/1/6 493/1/6 496/1/6
f 489/1/6 490/1/6 497/1/6
f 478/1/6 473/1/6 497/1/6
f 490/1/6 478/1/6 497/1/6
f 491/1/6 495/1/6 500/1/6
f 497/1/6 498/1/6 501/1/6
f 489/1/6 497/1/6 501/1/6
f 501/1/6 498/1/6 502/1/6
f 502/1/6 498/1/6 503/1/6
f 499/1/6 500/1/6 504/1/6
f 502/1/6 503/1/6 505/1/6
f 503/1/6 504/1/6 505/1/6
f 505/1/6 504/1/6 506/1/6
f 504/1/6 500/1/6 507/1/6
f 506/1/6 504/1/6 507/1/6
f 500/1/6 495/1/6 507/1/6
f 507/1/6 495/1/6 508/1/6
f 506/1/6 507/1/6 509/1/6
f 509/1/6 507/1/6 510/1/6
f 510/1/6 507/1/6 511/1/6
f 511/1/6 507/1/6 512/1/6
f 510/1/6 511/1/6 513/1/6
f 513/1/6 511/1/6 514/1/6
f 515/4/6 516/4/6 517/4/6
f 517/4/6 516/4/6 518/4/6
f 517/3/6 518/3/6 519/3/6
f 518/4/6 516/4/6 519/4/6
f 519/4/6 516/4/6 520/4/6
f 515/4/6 517/4/6 521/4/6
f 517/3/6 519/3/6 522/3/6
f 521/4/6 517/4/6 522/4/6
f 519/3/6 520/3/6 522/3/6
f 522/3/6 520/3/6 523/3/6
f 523/3/6 520/3/6 524/3/6
f 520/4/6 516/4/6 525/4/6
f 524/3/6 520/3/6 525/3/6
f 525/4/6 516/4/6 526/4/6
f 515/4/6 521/4/6 527/4/6
f 521/3/6 522/3/6 528/3/6
f 527/4/6 521/4/6 528/4/6
f 522/3/6 523/3/6 528/3/6
f 528/3/6 523/3/6 529/3/6
f 529/3/6 523/3/6 530/3/6
f 525/3/6 526/3/6 531/3/6
f 524/3/6 525/3/6 531/3/6
f 531/3/6 526/3/6 532/3/6
f 526/4/6 516/4/6 533/4/6
f 532/3/6 526/3/6 533/3/6
f 533/4/6 516/4/6 534/4/6
f 515/4/6 527/4/6 535/4/6
f 528/3/6 529/3/6 536/3/6
f 535/4/6 527/4/6 536/4/6
f 527/3/6 528/3/6 536/3/6
f 534/4/6 516/4/6 537/4/6
f 533/3/6 534/3/6 537/3/6
f 532/3/6 533/3/6 537/3/6
f 537/4/6 516/4/6 538/4/6
f 515/4/6 535/4/6 539/4/6
f 535/3/6 536/3/6 540/3/6
f 539/4/6 535/4/6 540/4/6
f 536/3/6 529/3/6 541/3/6
f 540/3/6 536/3/6 541/3/6
f 541/3/6 529/3/6 542/3/6
f 532/3/6 537/3/6 543/3/6
f 537/3/6 538/3/6 543/3/6
f 543/3/6 538/3/6 544/3/6
f 538/4/6 516/4/6 545/4/6
f 544/3/6 538/3/6 545/3/6
f 545/4/6 516/4/6 546/4/6
f 539/3/6 540/3/6 547/3/6
f 540/3/6 541/3/6 547/3/6
f 547/3/6 541/3/6 548/3/6
f 545/3/6 546/3/6 549/3/6
f 544/3/6 545/3/6 549/3/6
f 549/3/6 546/3/6 550/3/6
f 515/4/6 539/4/6 551/4/6
f 539/3/6 547/3/6 552/3/6
f 551/4/6 539/4/6 552/4/6
f 550/3/6 546/3/6 554/3/6
f 552/3/6 547/3/6 555/3/6
f 551/3/6 552/3/6 555/3/6
f 555/3/6 547/3/6 556/3/6
f 553/3/6 554/3/6 557/3/6
f 554/3/6 546/3/6 557/3/6
f 546/4/6 516/4/6 558/4/6
f 557/3/6 546/3/6 558/3/6
f 553/3/6 557/3/6 560/3/6
f 559/3/6 560/3/6 562/3/6
f 551/3/6 555/3/6 563/3/6
f 561/3/6 562/3/6 565/3/6
f 560/3/6 557/3/6 565/3/6
f 562/3/6 560/3/6 565/3/6
f 557/4/6 558/4/6 566/4/6
f 565/3/6 557/3/6 566/3/6
f 563/3/6 564/3/6 567/3/6
f 561/3/6 565/3/6 570/3/6
f 515/4/6 551/4/6 571/4/6
f 567/3/6 568/3/6 571/3/6
f 551/3/6 563/3/6 571/3/6
f 563/3/6 567/3/6 571/3/6
f 571/3/6 568/3/6 572/3/6
f 572/3/6 568/3/6 573/3/6
f 569/3/6 570/3/6 576/3/6
f 573/3/6 574/3/6 577/3/6
f 571/4/6 572/4/6 577/4/6
f 572/3/6 573/3/6 577/3/6
f 577/3/6 574/3/6 578/3/6
f 575/3/6 576/3/6 579/3/6
f 570/3/6 565/3/6 579/3/6
f 576/3/6 570/3/6 579/3/6
f 565/4/6 566/4/6 580/4/6
f 579/3/6 565/3/6 580/3/6
f 578/3/6 574/3/6 581/3/6
f 577/4/6 578/4/6 581/4/6
f 581/3/6 574/3/6 582/3/6
f 582/3/6 574/3/6 583/3/6
f 575/3/6 579/3/6 584/3/6
f 584/3/6 579/3/6 585/3/6
f 579/4/6 580/4/6 586/4/6
f 585/3/6 579/3/6 586/3/6
f 584/3/6 585/3/6 587/3/6
f 582/3/6 583/3/6 587/3/6
f 581/4/6 582/4/6 587/4/6
f 583/3/6 584/3/6 587/3/6
f 585/4/6 586/4/6 588/4/6
f 587/3/6 585/3/6 588/3/6
f 581/4/6 587/4/6 589/4/6
f 515/4/6 571/4/6 589/4/6
f 587/4/6 588/4/6 589/4/6
f 571/4/6 577/4/6 589/4/6
f 577/4/6 581/4/6 589/4/6
f 558/4/6 516/4/6 590/4/6
f 589/4/6 588/4/6 590/4/6
f 566/4/6 558/4/6 590/4/6
f 580/4/6 566/4/6 590/4/6
f 586/4/6 580/4/6 590/4/6
f 588/4/6 586/4/6 590/4/6
